<?xml version="1.0" encoding="UTF-8"?>
<svg version="1.1" xmlns="http://www.w3.org/2000/svg" width="512" height="512">
<path d="M0 0 C2.5357149 1.60827123 2.5357149 1.60827123 5.375 2.0625 C9.88459664 0.4024926 13.55944735 -2.11934921 17.52929688 -4.78466797 C20.49985274 -6.64008659 23.62648585 -7.96117804 26.875 -9.25 C27.9784375 -9.69988281 29.081875 -10.14976563 30.21875 -10.61328125 C40.85920285 -14.26994176 51.49124872 -15.47054014 62.6875 -15.375 C63.95424561 -15.36670166 65.22099121 -15.35840332 66.52612305 -15.34985352 C93.25029384 -14.86961485 117.29546096 -3.49366337 135.93798828 15.53613281 C158.61740736 39.625791 162.76650085 68.78388437 162.5 100.5 C162.48994395 102.59960508 162.48082277 104.69921485 162.47265625 106.79882812 C162.45086496 111.88683701 162.41648166 116.97461512 162.375 122.0625 C163.50518555 122.04155273 164.63537109 122.02060547 165.79980469 121.99902344 C169.99661569 121.92657304 174.19337152 121.88068216 178.390625 121.84277344 C180.2064748 121.82266939 182.02225995 121.79538165 183.83789062 121.76074219 C186.44938105 121.71216961 189.06001498 121.68951973 191.671875 121.671875 C192.48243347 121.65122986 193.29299194 121.63058472 194.12811279 121.60931396 C197.48345618 121.60798096 199.77674579 121.61942253 202.52360249 123.65379238 C204.91613973 126.76653433 205.30784648 129.18615342 205.93974304 133.05592346 C206.05758831 133.75590912 206.17543357 134.45589479 206.29684991 135.17709213 C206.675738 137.46958337 207.02799271 139.76498006 207.375 142.0625 C207.5517776 143.20388715 207.5517776 143.20388715 207.73212647 144.36833262 C208.64663416 150.29507301 209.49591721 156.23049126 210.33911133 162.16772461 C210.6219551 164.14079494 210.9051065 166.1138212 211.1885376 168.08680725 C211.95474549 173.4264768 212.71671308 178.7667437 213.47794175 184.10712504 C214.29225373 189.81426447 215.11067208 195.5208151 215.92863464 201.22743225 C217.49059757 212.12886026 219.04912933 223.0307758 220.60633153 233.93288475 C222.83037484 249.50261621 225.05923555 265.0716581 227.28866386 280.64061928 C227.6274981 283.00696335 227.96632523 285.37330844 228.30514526 287.73965454 C228.47260942 288.90921806 228.64007358 290.07878158 228.81261241 291.28378642 C229.82534777 298.35825221 230.83637265 305.43296012 231.84606206 312.50786126 C235.19125134 335.94621852 238.55707624 359.38108652 241.99989617 382.80532491 C242.99282613 389.56662257 243.9810304 396.32861324 244.96961206 403.09054786 C245.89635428 409.42389362 246.83196843 415.75584502 247.77449942 422.08685923 C248.35020886 425.96779056 248.91767273 429.84989578 249.48297143 433.73235583 C249.74332072 435.5082445 250.00711108 437.28363304 250.27479529 439.05843091 C255.04290226 470.70570843 255.04290226 470.70570843 246.45703125 482.75390625 C240.94029516 489.30564061 234.02791555 495.40969402 225.375 497.0625 C222.93043127 497.15809399 220.51468366 497.20198192 218.07033348 497.19672108 C216.95864285 497.20024942 216.95864285 497.20024942 215.82449383 497.20384905 C213.32734771 497.21053527 210.83025368 497.21008094 208.33309937 497.20967102 C206.5301107 497.21296988 204.72712278 497.21669549 202.9241358 497.2208125 C197.9585889 497.23083809 192.99305408 497.23455019 188.02749848 497.23720181 C182.67626573 497.24110318 177.32504256 497.25068162 171.97381592 497.25941467 C159.0454021 497.27918345 146.11698749 497.28924567 133.18856233 497.29814246 C127.10209345 497.30252455 121.01562545 497.30789155 114.92915726 497.31313133 C94.69953021 497.33014377 74.46990371 497.34463843 54.24027061 497.35188007 C48.98977025 497.35379 43.73926988 497.35571033 38.48876953 497.35766602 C37.18376537 497.35814976 35.87876121 497.3586335 34.53421147 497.3591319 C13.38918631 497.36743401 -7.75578231 497.39277394 -28.90078278 497.42524669 C-50.60397701 497.45830529 -72.30714249 497.47632774 -94.01036203 497.47952431 C-106.19832577 497.48169048 -118.38620705 497.49045486 -130.57414627 497.51598549 C-140.9529275 497.53767604 -151.33160625 497.54575096 -161.71040757 497.53601871 C-167.00580113 497.53146932 -172.30098316 497.53339755 -177.59634781 497.55278015 C-182.44617401 497.57037864 -187.29563384 497.56944091 -192.14546375 497.55388286 C-193.89787027 497.55150177 -195.65030194 497.55585629 -197.40266998 497.56771151 C-211.06888315 497.65442357 -220.34390848 496.04405742 -230.49609375 486.2890625 C-238.4010842 478.0214578 -239.87835022 469.91839566 -239.76938498 458.81494069 C-239.54988548 453.11033858 -238.81477543 447.53880127 -237.97477722 441.89657593 C-237.79721762 440.64915827 -237.61965801 439.40174062 -237.43671781 438.11652243 C-236.94964821 434.69657051 -236.45047034 431.27848577 -235.94908559 427.86060739 C-235.40807593 424.15731409 -234.87861066 420.4523676 -234.34767151 416.74761963 C-233.42759773 410.33867851 -232.50034101 403.93081058 -231.56807518 397.52363205 C-230.21704173 388.23837142 -228.87695012 378.95155697 -227.53939144 369.66434689 C-225.36435315 354.56432838 -223.1804402 339.46560745 -220.9909668 324.36767578 C-218.87246328 309.75900558 -216.75838403 295.14970618 -214.65014648 280.53955078 C-214.45554909 279.1909991 -214.45554909 279.1909991 -214.25702044 277.81520395 C-213.73536795 274.20004398 -213.21374841 270.58487925 -212.69217212 266.96970829 C-208.57660855 238.44395341 -204.45556638 209.91899092 -200.32262814 181.3957479 C-200.01065431 179.24220924 -199.69886443 177.08864402 -199.38713455 174.93507004 C-198.29612124 167.39903284 -197.2000373 159.86375821 -196.0988977 152.32919264 C-195.64468602 149.19820058 -195.20017237 146.06597845 -194.75814247 142.93324661 C-194.49763486 141.11926897 -194.23701984 139.30530674 -193.97627258 137.49136353 C-193.81187897 136.29596421 -193.81187897 136.29596421 -193.64416426 135.07641542 C-193.07537246 131.16709968 -192.47388128 127.57941338 -190.625 124.0625 C-186.88495683 121.56913789 -183.99938391 121.80768772 -179.67578125 121.8671875 C-178.90316452 121.8700174 -178.13054779 121.87284729 -177.33451843 121.87576294 C-174.86868757 121.88695122 -172.40322094 121.91205297 -169.9375 121.9375 C-168.26497921 121.94753157 -166.59245272 121.95665711 -164.91992188 121.96484375 C-160.82147441 121.98688608 -156.72329894 122.02140637 -152.625 122.0625 C-152.64071045 120.79881592 -152.6564209 119.53513184 -152.67260742 118.2331543 C-152.72778378 113.44887927 -152.76166181 108.66463094 -152.78979492 103.88012695 C-152.80468524 101.82734414 -152.82500422 99.77459198 -152.85131836 97.72192383 C-153.13452281 75.02669696 -151.48994667 51.67249544 -138.625 32.0625 C-135.59899493 29.96430811 -134.70367335 30.05463267 -130.875 30.4375 C-129.8025 30.64375 -128.73 30.85 -127.625 31.0625 C-127.36332031 30.48371094 -127.10164063 29.90492187 -126.83203125 29.30859375 C-125.55207261 26.92679369 -124.11143946 25.13933354 -122.3125 23.125 C-121.69632812 22.42503906 -121.08015625 21.72507813 -120.4453125 21.00390625 C-118.625 19.0625 -118.625 19.0625 -115.6875 16.5625 C-113.2007447 14.08841332 -113.2007447 14.08841332 -113.625 10.0625 C-113.625 6.0625 -113.625 6.0625 -111.75 3.4375 C-80.31494022 -20.45314543 -32.63069343 -22.85102654 0 0 Z M-92.6171875 52.3125 C-101.61048157 64.63016347 -103.81802918 77.63277897 -103.72265625 92.47265625 C-103.72164917 93.23026245 -103.72064209 93.98786865 -103.71960449 94.76843262 C-103.71443755 97.55397084 -103.70047724 100.33948721 -103.6875 103.125 C-103.666875 109.374375 -103.64625 115.62375 -103.625 122.0625 C-81.515 122.0625 -59.405 122.0625 -36.625 122.0625 C-36.3770359 109.75444111 -36.3770359 109.75444111 -36.14697266 97.44604492 C-35.96930171 88.86337973 -35.59820365 80.33316375 -34.7421875 71.7890625 C-34.67029205 71.03864182 -34.59839661 70.28822113 -34.52432251 69.51506042 C-33.66326468 61.68039905 -31.26450967 54.46497102 -28.625 47.0625 C-27.95493871 45.06363474 -27.28706722 43.06402728 -26.625 41.0625 C-28.11934423 40.26020863 -29.62086472 39.47128133 -31.125 38.6875 C-31.9603125 38.24664062 -32.795625 37.80578125 -33.65625 37.3515625 C-54.42812469 28.33219586 -78.25529879 35.42827242 -92.6171875 52.3125 Z M36.375 41.0625 C36.78492188 42.24585938 37.19484375 43.42921875 37.6171875 44.6484375 C44.30958274 64.17567663 45.48863777 82.36073766 45.9375 102.875 C46.081875 109.206875 46.22625 115.53875 46.375 122.0625 C68.485 122.0625 90.595 122.0625 113.375 122.0625 C113.41625 115.895625 113.4575 109.72875 113.5 103.375 C113.51820801 101.45727783 113.53641602 99.53955566 113.55517578 97.5637207 C113.66016103 78.83888572 111.95286143 62.17955448 98.375 48.0625 C88.34853756 38.79616648 76.67257346 33.6436595 63 33.75 C62.25758057 33.75418945 61.51516113 33.75837891 60.75024414 33.76269531 C51.5021597 33.95231685 44.49888631 36.91656813 36.375 41.0625 Z " fill="#58A0A4" transform="translate(249.625,14.9375)"/>
<path d="M0 0 C2.5357149 1.60827123 2.5357149 1.60827123 5.375 2.0625 C9.88459664 0.4024926 13.55944735 -2.11934921 17.52929688 -4.78466797 C20.49985274 -6.64008659 23.62648585 -7.96117804 26.875 -9.25 C27.9784375 -9.69988281 29.081875 -10.14976563 30.21875 -10.61328125 C40.85920285 -14.26994176 51.49124872 -15.47054014 62.6875 -15.375 C63.95424561 -15.36670166 65.22099121 -15.35840332 66.52612305 -15.34985352 C93.25029384 -14.86961485 117.29546096 -3.49366337 135.93798828 15.53613281 C158.61740736 39.625791 162.76650085 68.78388437 162.5 100.5 C162.48994395 102.59960508 162.48082277 104.69921485 162.47265625 106.79882812 C162.45086496 111.88683701 162.41648166 116.97461512 162.375 122.0625 C163.50518555 122.04155273 164.63537109 122.02060547 165.79980469 121.99902344 C169.99661569 121.92657304 174.19337152 121.88068216 178.390625 121.84277344 C180.2064748 121.82266939 182.02225995 121.79538165 183.83789062 121.76074219 C186.44938105 121.71216961 189.06001498 121.68951973 191.671875 121.671875 C192.48243347 121.65122986 193.29299194 121.63058472 194.12811279 121.60931396 C197.48345618 121.60798096 199.77674579 121.61942253 202.52360249 123.65379238 C204.91613973 126.76653433 205.30784648 129.18615342 205.93974304 133.05592346 C206.05758831 133.75590912 206.17543357 134.45589479 206.29684991 135.17709213 C206.675738 137.46958337 207.02799271 139.76498006 207.375 142.0625 C207.5517776 143.20388715 207.5517776 143.20388715 207.73212647 144.36833262 C208.64663416 150.29507301 209.49591721 156.23049126 210.33911133 162.16772461 C210.6219551 164.14079494 210.9051065 166.1138212 211.1885376 168.08680725 C211.95474549 173.4264768 212.71671308 178.7667437 213.47794175 184.10712504 C214.29225373 189.81426447 215.11067208 195.5208151 215.92863464 201.22743225 C217.49059757 212.12886026 219.04912933 223.0307758 220.60633153 233.93288475 C222.83037484 249.50261621 225.05923555 265.0716581 227.28866386 280.64061928 C227.6274981 283.00696335 227.96632523 285.37330844 228.30514526 287.73965454 C228.47260942 288.90921806 228.64007358 290.07878158 228.81261241 291.28378642 C229.82534777 298.35825221 230.83637265 305.43296012 231.84606206 312.50786126 C235.19125134 335.94621852 238.55707624 359.38108652 241.99989617 382.80532491 C242.99282613 389.56662257 243.9810304 396.32861324 244.96961206 403.09054786 C245.89635428 409.42389362 246.83196843 415.75584502 247.77449942 422.08685923 C248.35020886 425.96779056 248.91767273 429.84989578 249.48297143 433.73235583 C249.74332072 435.5082445 250.00711108 437.28363304 250.27479529 439.05843091 C255.04290226 470.70570843 255.04290226 470.70570843 246.45703125 482.75390625 C240.94029516 489.30564061 234.02791555 495.40969402 225.375 497.0625 C222.93043127 497.15809399 220.51468366 497.20198192 218.07033348 497.19672108 C216.95864285 497.20024942 216.95864285 497.20024942 215.82449383 497.20384905 C213.32734771 497.21053527 210.83025368 497.21008094 208.33309937 497.20967102 C206.5301107 497.21296988 204.72712278 497.21669549 202.9241358 497.2208125 C197.9585889 497.23083809 192.99305408 497.23455019 188.02749848 497.23720181 C182.67626573 497.24110318 177.32504256 497.25068162 171.97381592 497.25941467 C159.0454021 497.27918345 146.11698749 497.28924567 133.18856233 497.29814246 C127.10209345 497.30252455 121.01562545 497.30789155 114.92915726 497.31313133 C94.69953021 497.33014377 74.46990371 497.34463843 54.24027061 497.35188007 C48.98977025 497.35379 43.73926988 497.35571033 38.48876953 497.35766602 C37.18376537 497.35814976 35.87876121 497.3586335 34.53421147 497.3591319 C13.38918631 497.36743401 -7.75578231 497.39277394 -28.90078278 497.42524669 C-50.60397701 497.45830529 -72.30714249 497.47632774 -94.01036203 497.47952431 C-106.19832577 497.48169048 -118.38620705 497.49045486 -130.57414627 497.51598549 C-140.9529275 497.53767604 -151.33160625 497.54575096 -161.71040757 497.53601871 C-167.00580113 497.53146932 -172.30098316 497.53339755 -177.59634781 497.55278015 C-182.44617401 497.57037864 -187.29563384 497.56944091 -192.14546375 497.55388286 C-193.89787027 497.55150177 -195.65030194 497.55585629 -197.40266998 497.56771151 C-211.06888315 497.65442357 -220.34390848 496.04405742 -230.49609375 486.2890625 C-238.4010842 478.0214578 -239.87835022 469.91839566 -239.76938498 458.81494069 C-239.54988548 453.11033858 -238.81477543 447.53880127 -237.97477722 441.89657593 C-237.79721762 440.64915827 -237.61965801 439.40174062 -237.43671781 438.11652243 C-236.94964821 434.69657051 -236.45047034 431.27848577 -235.94908559 427.86060739 C-235.40807593 424.15731409 -234.87861066 420.4523676 -234.34767151 416.74761963 C-233.42759773 410.33867851 -232.50034101 403.93081058 -231.56807518 397.52363205 C-230.21704173 388.23837142 -228.87695012 378.95155697 -227.53939144 369.66434689 C-225.36435315 354.56432838 -223.1804402 339.46560745 -220.9909668 324.36767578 C-218.87246328 309.75900558 -216.75838403 295.14970618 -214.65014648 280.53955078 C-214.45554909 279.1909991 -214.45554909 279.1909991 -214.25702044 277.81520395 C-213.73536795 274.20004398 -213.21374841 270.58487925 -212.69217212 266.96970829 C-208.57660855 238.44395341 -204.45556638 209.91899092 -200.32262814 181.3957479 C-200.01065431 179.24220924 -199.69886443 177.08864402 -199.38713455 174.93507004 C-198.29612124 167.39903284 -197.2000373 159.86375821 -196.0988977 152.32919264 C-195.64468602 149.19820058 -195.20017237 146.06597845 -194.75814247 142.93324661 C-194.49763486 141.11926897 -194.23701984 139.30530674 -193.97627258 137.49136353 C-193.81187897 136.29596421 -193.81187897 136.29596421 -193.64416426 135.07641542 C-193.07537246 131.16709968 -192.47388128 127.57941338 -190.625 124.0625 C-186.88495683 121.56913789 -183.99938391 121.80768772 -179.67578125 121.8671875 C-178.90316452 121.8700174 -178.13054779 121.87284729 -177.33451843 121.87576294 C-174.86868757 121.88695122 -172.40322094 121.91205297 -169.9375 121.9375 C-168.26497921 121.94753157 -166.59245272 121.95665711 -164.91992188 121.96484375 C-160.82147441 121.98688608 -156.72329894 122.02140637 -152.625 122.0625 C-152.64071045 120.79881592 -152.6564209 119.53513184 -152.67260742 118.2331543 C-152.72778378 113.44887927 -152.76166181 108.66463094 -152.78979492 103.88012695 C-152.80468524 101.82734414 -152.82500422 99.77459198 -152.85131836 97.72192383 C-153.13452281 75.02669696 -151.48994667 51.67249544 -138.625 32.0625 C-135.59899493 29.96430811 -134.70367335 30.05463267 -130.875 30.4375 C-129.8025 30.64375 -128.73 30.85 -127.625 31.0625 C-127.36332031 30.48371094 -127.10164063 29.90492187 -126.83203125 29.30859375 C-125.55207261 26.92679369 -124.11143946 25.13933354 -122.3125 23.125 C-121.69632812 22.42503906 -121.08015625 21.72507813 -120.4453125 21.00390625 C-118.625 19.0625 -118.625 19.0625 -115.6875 16.5625 C-113.2007447 14.08841332 -113.2007447 14.08841332 -113.625 10.0625 C-113.625 6.0625 -113.625 6.0625 -111.75 3.4375 C-80.31494022 -20.45314543 -32.63069343 -22.85102654 0 0 Z M-92.6171875 52.3125 C-101.61048157 64.63016347 -103.81802918 77.63277897 -103.72265625 92.47265625 C-103.72164917 93.23026245 -103.72064209 93.98786865 -103.71960449 94.76843262 C-103.71443755 97.55397084 -103.70047724 100.33948721 -103.6875 103.125 C-103.666875 109.374375 -103.64625 115.62375 -103.625 122.0625 C-81.515 122.0625 -59.405 122.0625 -36.625 122.0625 C-36.3770359 109.75444111 -36.3770359 109.75444111 -36.14697266 97.44604492 C-35.96930171 88.86337973 -35.59820365 80.33316375 -34.7421875 71.7890625 C-34.67029205 71.03864182 -34.59839661 70.28822113 -34.52432251 69.51506042 C-33.66326468 61.68039905 -31.26450967 54.46497102 -28.625 47.0625 C-27.95493871 45.06363474 -27.28706722 43.06402728 -26.625 41.0625 C-28.11934423 40.26020863 -29.62086472 39.47128133 -31.125 38.6875 C-31.9603125 38.24664062 -32.795625 37.80578125 -33.65625 37.3515625 C-54.42812469 28.33219586 -78.25529879 35.42827242 -92.6171875 52.3125 Z M36.375 41.0625 C36.78492188 42.24585938 37.19484375 43.42921875 37.6171875 44.6484375 C44.30958274 64.17567663 45.48863777 82.36073766 45.9375 102.875 C46.081875 109.206875 46.22625 115.53875 46.375 122.0625 C68.485 122.0625 90.595 122.0625 113.375 122.0625 C113.41625 115.895625 113.4575 109.72875 113.5 103.375 C113.51820801 101.45727783 113.53641602 99.53955566 113.55517578 97.5637207 C113.66016103 78.83888572 111.95286143 62.17955448 98.375 48.0625 C88.34853756 38.79616648 76.67257346 33.6436595 63 33.75 C62.25758057 33.75418945 61.51516113 33.75837891 60.75024414 33.76269531 C51.5021597 33.95231685 44.49888631 36.91656813 36.375 41.0625 Z M-177.625 137.0625 C-178.17929688 140.83300781 -178.73359375 144.60351562 -179.3046875 148.48828125 C-179.84705028 152.16876672 -180.39004787 155.84915801 -180.93310547 159.52954102 C-181.30811748 162.07338867 -181.68247687 164.61733263 -182.05615234 167.16137695 C-182.59558348 170.83310487 -183.13741613 174.50447186 -183.6796875 178.17578125 C-183.84435516 179.30019119 -184.00902283 180.42460114 -184.17868042 181.58308411 C-184.33869537 182.66337387 -184.49871033 183.74366364 -184.66357422 184.85668945 C-184.80125214 185.79156693 -184.93893005 186.7264444 -185.08078003 187.68965149 C-185.54383567 190.55947731 -186.05589361 193.41159652 -186.58682251 196.26933289 C-187.60275708 201.81526236 -188.42834126 207.37411356 -189.19726562 212.95898438 C-189.34064865 213.9865535 -189.48403168 215.01412262 -189.63175964 216.0728302 C-189.93993714 218.28350536 -190.2470778 220.49432526 -190.55326843 222.70527649 C-191.03908239 226.21279898 -191.5277866 229.71990842 -192.01721191 233.22692871 C-193.0556714 240.671768 -194.09059924 248.11709585 -195.125 255.5625 C-196.32454091 264.19654901 -197.52556288 272.8303866 -198.73039246 281.46369934 C-199.20969031 284.9037266 -199.68626197 288.3441243 -200.16271973 291.7845459 C-200.45925698 293.9117212 -200.75592191 296.03887871 -201.05273438 298.16601562 C-201.18266281 299.10971512 -201.31259125 300.05341461 -201.44645691 301.02571106 C-202.21260719 306.49231588 -203.13217227 311.9110664 -204.13967514 317.33801651 C-204.93237453 321.78801808 -205.54963989 326.25946944 -206.16552734 330.73681641 C-206.30569778 331.74189743 -206.44586823 332.74697845 -206.59028625 333.78251648 C-206.89190906 335.94732539 -207.19249682 338.11227872 -207.49213791 340.27736282 C-207.97005488 343.7299282 -208.45092567 347.18207131 -208.93252563 350.63412476 C-210.12943647 359.21760612 -211.32166143 367.80173681 -212.51348877 376.38592529 C-213.52022423 383.63608024 -214.52907263 390.88593524 -215.54063797 398.13541794 C-216.00782362 401.48946638 -216.47204731 404.84391538 -216.93612671 408.19839478 C-218.59039485 420.0920192 -220.36224366 431.95919253 -222.29813194 443.81049538 C-225.58091496 459.49799689 -225.58091496 459.49799689 -220.625 474.0625 C-216.94351417 478.01668848 -212.71056518 481.74421022 -207.17237037 482.31549966 C-206.24725892 482.31690851 -205.32214747 482.31831736 -204.36900234 482.31976891 C-202.76312792 482.32944224 -202.76312792 482.32944224 -201.12481159 482.339311 C-199.94944515 482.3362138 -198.7740787 482.3331166 -197.56309509 482.32992554 C-196.31378804 482.33445665 -195.06448099 482.33898776 -193.77731615 482.34365618 C-190.30728064 482.35590523 -186.8373414 482.35562347 -183.36728919 482.35326743 C-179.62544936 482.35285972 -175.88364059 482.36389424 -172.14181519 482.37338257 C-164.8086675 482.39000576 -157.47555197 482.39549278 -150.14238703 482.39660732 C-144.17956625 482.39755751 -138.21675609 482.40166635 -132.25393867 482.40800858 C-115.34466695 482.42562733 -98.43542063 482.43484687 -81.52613967 482.43334763 C-80.6142836 482.43326772 -79.70242753 482.4331878 -78.76293945 482.43310547 C-77.39348248 482.43298283 -77.39348248 482.43298283 -75.99635971 482.43285771 C-61.21182212 482.43204542 -46.42738656 482.45116707 -31.64287847 482.4793822 C-16.45871482 482.50813097 -1.27460089 482.52192129 13.90959066 482.52019465 C22.43279827 482.51953126 30.95589903 482.52500048 39.47908211 482.54655075 C46.73898999 482.56478915 53.99874263 482.5690884 61.25866354 482.5555319 C64.96032484 482.54901459 68.66168856 482.54883965 72.3633213 482.5662384 C76.38384107 482.5849408 80.40367589 482.57238186 84.42420959 482.55697632 C85.58396099 482.56726344 86.74371238 482.57755057 87.93860775 482.58814943 C95.82969066 482.52149212 104.26737787 481.71254246 110.41034847 476.25388467 C116.10969309 469.96571836 115.79213415 463.43732843 115.5135498 455.32745361 C115.06503188 447.99527231 113.70201428 440.73785306 112.5 433.5 C112.22676502 431.80811992 111.95462523 430.11606259 111.68359375 428.42382812 C111.28656334 425.94736545 110.88888354 423.47103184 110.4874115 420.99528503 C105.96069061 393.05334315 105.96069061 393.05334315 108.6015625 389.3359375 C111.42872728 387.30585882 114.0145606 387.82943742 117.37036133 387.9753418 C118.03189209 388.004104 118.69342285 388.03286621 119.375 388.0625 C121.36970947 398.28120718 122.76419102 408.57509443 124.19775391 418.88330078 C125.31333902 426.88538097 126.46427056 434.85713183 127.95239258 442.80029297 C130.24460035 455.07042426 131.84590856 468.94062591 125.375 480.0625 C125.375 480.7225 125.375 481.3825 125.375 482.0625 C137.75361518 482.15529227 150.13214723 482.22631208 162.51103973 482.26974869 C168.25943817 482.29059899 174.00759816 482.31887035 179.75585938 482.36425781 C185.30609981 482.40780612 190.85611127 482.43165634 196.4065094 482.44200897 C198.5211599 482.44938416 200.63579826 482.46378621 202.75035095 482.48542023 C205.71860569 482.51457321 208.68592138 482.51845098 211.65429688 482.51660156 C212.95765991 482.53817322 212.95765991 482.53817322 214.28735352 482.56018066 C221.05243549 482.51474727 226.31469985 480.76276484 231.43359375 476.24609375 C231.88863281 475.66988281 232.34367187 475.09367187 232.8125 474.5 C233.52212891 473.63181641 233.52212891 473.63181641 234.24609375 472.74609375 C240.54817492 463.34748827 235.64412197 444.7140553 234.0625 434.125 C233.84604784 432.60755813 233.63055135 431.08997963 233.41601562 429.57226562 C233.19878283 428.05977118 232.98071084 426.54739697 232.76171875 425.03515625 C232.66783371 424.38563492 232.57394867 423.73611359 232.47721863 423.06690979 C231.85096593 418.87952568 231.13293071 414.7148751 230.37257862 410.54968929 C228.47638786 400.09807627 226.98823143 389.60408129 225.5567627 379.07991028 C225.11356061 375.82216509 224.666154 372.56501966 224.21777344 369.3079834 C223.10594063 361.22549884 222.00106369 353.14206655 220.89599609 345.05865479 C219.95808137 338.19997373 219.01744944 331.34167545 218.07336426 324.48384094 C217.63708581 321.30676162 217.20467402 318.12917259 216.77246094 314.95153809 C215.51388242 305.76495225 214.17048368 296.61942159 212.50063992 287.49842834 C210.94293694 278.8734959 209.78216081 270.19086048 208.58732796 261.5096283 C208.14785998 258.31691828 207.70442891 255.12477852 207.26011658 251.93273926 C206.3157756 245.14313828 205.3764268 238.35285147 204.4375 231.5625 C203.35051563 223.70483917 202.26134708 215.84748862 201.1682415 207.99067688 C200.73857319 204.89589532 200.3120454 201.80069302 199.88575745 198.70544434 C198.2131798 186.62936543 196.38222228 174.58611742 194.42527771 162.55285645 C193.05094609 154.05995788 191.71680498 145.56059819 190.375 137.0625 C155.395 137.0625 120.415 137.0625 84.375 137.0625 C85.03422493 144.97319912 85.79530736 152.73012347 86.93359375 160.56640625 C87.08280777 161.61094467 87.23202179 162.65548309 87.38575745 163.73167419 C87.69926153 165.92088484 88.01445989 168.10985349 88.33129883 170.29858398 C88.81173057 173.61968113 89.2861642 176.94159455 89.75976562 180.26367188 C90.06735446 182.40630083 90.37528567 184.54888067 90.68359375 186.69140625 C90.82325058 187.66880264 90.96290741 188.64619904 91.10679626 189.6532135 C91.24356277 190.59466721 91.38032928 191.53612091 91.52124023 192.50610352 C91.63813705 193.31596207 91.75503387 194.12582062 91.87547302 194.96022034 C92.32082857 197.72607186 92.8184019 200.4745898 93.33009338 203.22874451 C94.34793415 208.78830392 95.17646629 214.36049522 95.94726562 219.95898438 C96.09064865 220.9865535 96.23403168 222.01412262 96.38175964 223.0728302 C96.68993714 225.28350536 96.9970778 227.49432526 97.30326843 229.70527649 C97.78908239 233.21279898 98.2777866 236.71990842 98.76721191 240.22692871 C99.98163174 248.93324852 101.19114451 257.64024868 102.40081787 266.347229 C103.42527541 273.71967517 104.4516083 281.09185564 105.48039246 288.46369934 C105.95969031 291.9037266 106.43626197 295.3441243 106.91271973 298.7845459 C107.20925698 300.9117212 107.50592191 303.03887871 107.80273438 305.16601562 C107.93266281 306.10971512 108.06259125 307.05341461 108.19645691 308.02571106 C108.97087285 313.5512927 109.88051988 319.03616143 110.90961456 324.52014923 C111.706521 328.87356371 112.35999894 333.24621722 113 337.625 C113.1340625 338.49318359 113.268125 339.36136719 113.40625 340.25585938 C114.05052688 344.67047082 114.52813975 349.06821096 114.7109375 353.52734375 C114.74493652 354.32648193 114.77893555 355.12562012 114.81396484 355.94897461 C114.375 358.0625 114.375 358.0625 112.58056641 359.85375977 C109.25482672 361.67640059 106.95483443 360.99060522 103.375 360.0625 C101.15647758 356.73471637 100.85007076 354.79258527 100.28100586 350.86865234 C99.99397293 348.92780762 99.99397293 348.92780762 99.70114136 346.94775391 C99.49718775 345.51467514 99.29342808 344.08156877 99.08984375 342.6484375 C98.87122742 341.14834822 98.65198503 339.64835005 98.43215942 338.1484375 C97.83963706 334.09102442 97.25696076 330.0322519 96.67622757 325.9731369 C96.1906835 322.58828637 95.69928491 319.2042966 95.2078886 315.82029152 C91.47246212 290.08803417 87.86568068 264.33753427 84.36889648 238.57177734 C82.67537121 226.13476313 80.87669473 213.72933928 78.85113525 201.34196472 C76.90441858 189.34265732 75.30243536 177.29761058 73.6875 165.25 C73.22688767 161.82110436 72.76534958 158.39234475 72.30107117 154.96394348 C72.0161654 152.85965658 71.73335026 150.75508522 71.45295715 148.65019226 C71.32579819 147.71012833 71.19863922 146.77006439 71.06762695 145.80151367 C70.95755814 144.97979172 70.84748932 144.15806976 70.73408508 143.31144714 C70.3979815 141.20643297 69.89200781 139.13053124 69.375 137.0625 C61.455 137.0625 53.535 137.0625 45.375 137.0625 C45.36082031 139.03992188 45.34664063 141.01734375 45.33203125 143.0546875 C45.2972174 145.00426335 45.26222146 146.95384007 45.22241211 148.90332031 C45.18825235 150.89366399 45.17880856 152.88438304 45.16992188 154.875 C44.96848335 163.73829528 44.02475638 171.58814208 37.36865234 177.99316406 C31.75859753 182.55213149 26.04592811 184.62468568 18.8125 184.44140625 C12.96160585 183.53189226 7.39700795 180.61073411 3.4375 176.1875 C-5.16116118 163.15922548 -1.98947084 155.49284566 -2.625 137.0625 C-35.955 137.0625 -69.285 137.0625 -103.625 137.0625 C-103.955 146.6325 -104.285 156.2025 -104.625 166.0625 C-109.25628846 175.32507692 -111.78027255 178.67871042 -120 183.4375 C-127.54596953 185.23415941 -133.57742219 184.38529083 -140.359375 180.62109375 C-145.47915798 177.09903615 -148.64322771 172.93424877 -150.625 167.0625 C-150.84996574 164.71896332 -150.97897205 162.36526138 -151.0390625 160.01171875 C-151.05842865 159.35291214 -151.0777948 158.69410553 -151.0977478 158.01533508 C-151.15715941 155.92701857 -151.20377291 153.83864576 -151.25 151.75 C-151.28821532 150.32745095 -151.32726909 148.90492416 -151.3671875 147.48242188 C-151.46439621 144.00923552 -151.5442642 140.53626403 -151.625 137.0625 C-160.205 137.0625 -168.785 137.0625 -177.625 137.0625 Z " fill="#010101" transform="translate(249.625,14.9375)"/>
<path d="M0 0 C34.98 0 69.96 0 106 0 C107.98 13.2 109.96 26.4 112 40 C112.64710938 43.97289062 113.29421875 47.94578125 113.9609375 52.0390625 C117.20801727 72.09574034 119.84373021 92.24961002 122.625 112.375 C123.64347684 119.7426304 124.66370691 127.11001163 125.68763351 134.47688675 C126.09166034 137.38955193 126.49288867 140.30259316 126.89395142 143.21566772 C127.14352384 145.01407683 127.39322223 146.81246847 127.64306641 148.61083984 C127.75115128 149.40163437 127.85923615 150.19242889 127.97059631 151.00718689 C128.55063669 155.1604034 129.22093949 159.28251051 129.98654175 163.40579224 C131.00021805 168.88464892 131.81239589 174.37737938 132.57226562 179.89648438 C132.71564865 180.9240535 132.85903168 181.95162262 133.00675964 183.0103302 C133.31493714 185.22100536 133.6220778 187.43182526 133.92826843 189.64277649 C134.41408239 193.15029898 134.9027866 196.65740842 135.39221191 200.16442871 C136.60663174 208.87074852 137.81614451 217.57774868 139.02581787 226.284729 C140.05027541 233.65717517 141.0766083 241.02935564 142.10539246 248.40119934 C142.58469031 251.8412266 143.06126197 255.2816243 143.53771973 258.7220459 C143.83425698 260.8492212 144.13092191 262.97637871 144.42773438 265.10351562 C144.55766281 266.04721512 144.68759125 266.99091461 144.82145691 267.96321106 C145.60383759 273.54562239 146.52509403 279.08735801 147.55974388 284.62866688 C155.33459617 326.50602862 155.33459617 326.50602862 149 337 C147.3515625 338.828125 147.3515625 338.828125 145.625 340.25 C145.06039062 340.72953125 144.49578125 341.2090625 143.9140625 341.703125 C138.62137689 345.28918954 133.80200585 345.27758303 127.61987305 345.22705078 C126.68280014 345.22734283 125.74572723 345.22763489 124.78025818 345.22793579 C121.69065003 345.22654524 118.60128465 345.21099685 115.51171875 345.1953125 C113.36652254 345.1915814 111.22132462 345.18873488 109.0761261 345.18673706 C103.43561074 345.17910829 97.79519871 345.15946621 92.15472412 345.1373291 C86.39678342 345.11685444 80.638826 345.10773187 74.88085938 345.09765625 C63.58719424 345.07621968 52.29360572 345.04209277 41 345 C41.47730838 343.5410574 41.95691042 342.08286504 42.4375 340.625 C42.70433594 339.81289063 42.97117187 339.00078125 43.24609375 338.1640625 C44 336 44 336 45 334 C45.6557922 319.06928912 43.96042621 305.02382702 41.2512207 290.35058594 C39.66231909 281.51609499 38.53374006 272.60940423 37.35791016 263.71240234 C37.19597168 262.5002002 37.0340332 261.28799805 36.8671875 260.0390625 C36.72394043 258.94803223 36.58069336 257.85700195 36.43310547 256.73291016 C36.06333897 253.91695371 36.06333897 253.91695371 35 251 C31.48809191 249.77030122 31.48809191 249.77030122 28 249 C27.4649366 245.773025 26.94949467 242.54320875 26.4375 239.3125 C26.21030273 237.94448242 26.21030273 237.94448242 25.97851562 236.54882812 C25.83994141 235.66259766 25.70136719 234.77636719 25.55859375 233.86328125 C25.42767334 233.05157471 25.29675293 232.23986816 25.16186523 231.40356445 C24.97603755 228.64417748 25.13280857 226.63340278 26 224 C27.32914097 222.99443446 28.66230098 221.99415246 30 221 C31.70856803 213.53132677 29.26754159 204.38782328 28.1875 196.9375 C28.02185547 195.74189453 27.85621094 194.54628906 27.68554688 193.31445312 C26.79348537 187.00269718 25.78379916 180.73827199 24.63012695 174.46899414 C22.87465915 164.6896916 21.52065913 154.86098894 20.1817627 145.01741028 C19.73856061 141.75966509 19.291154 138.50251966 18.84277344 135.2454834 C17.73094063 127.16299884 16.62606369 119.07956655 15.52099609 110.99615479 C14.58308137 104.13747373 13.64244944 97.27917545 12.69836426 90.42134094 C12.26208581 87.24426162 11.82967402 84.06667259 11.39746094 80.88903809 C10.01033195 70.76394537 8.48700253 60.69055727 6.65414429 50.63647461 C5.7985738 45.8802451 5.07381519 41.11221758 4.39453125 36.328125 C4.26559982 35.43180359 4.1366684 34.53548218 4.00382996 33.61199951 C3.73790116 31.75748191 3.47334946 29.9027663 3.21020508 28.04785156 C2.80694136 25.21089499 2.39684078 22.37497823 1.98632812 19.5390625 C1.72615616 17.71880803 1.4663756 15.89849757 1.20703125 14.078125 C1.08519974 13.23856262 0.96336823 12.39900024 0.83784485 11.53399658 C0.72740341 10.74837341 0.61696198 9.96275024 0.50317383 9.15332031 C0.40563309 8.46957336 0.30809235 7.78582642 0.20759583 7.08135986 C-0.02677516 4.7315517 0 2.36146738 0 0 Z " fill="#B4E7DF" transform="translate(334,152)"/>
<path d="M0 0 C34.98 0 69.96 0 106 0 C107.98 13.2 109.96 26.4 112 40 C112.64710938 43.97289062 113.29421875 47.94578125 113.9609375 52.0390625 C117.20801727 72.09574034 119.84373021 92.24961002 122.625 112.375 C123.64347684 119.7426304 124.66370691 127.11001163 125.68763351 134.47688675 C126.09166034 137.38955193 126.49288867 140.30259316 126.89395142 143.21566772 C127.14352384 145.01407683 127.39322223 146.81246847 127.64306641 148.61083984 C127.75115128 149.40163437 127.85923615 150.19242889 127.97059631 151.00718689 C128.55063669 155.1604034 129.22093949 159.28251051 129.98654175 163.40579224 C131.00021805 168.88464892 131.81239589 174.37737938 132.57226562 179.89648438 C132.71564865 180.9240535 132.85903168 181.95162262 133.00675964 183.0103302 C133.31493714 185.22100536 133.6220778 187.43182526 133.92826843 189.64277649 C134.41408239 193.15029898 134.9027866 196.65740842 135.39221191 200.16442871 C136.60663174 208.87074852 137.81614451 217.57774868 139.02581787 226.284729 C140.05027541 233.65717517 141.0766083 241.02935564 142.10539246 248.40119934 C142.58469031 251.8412266 143.06126197 255.2816243 143.53771973 258.7220459 C143.83425698 260.8492212 144.13092191 262.97637871 144.42773438 265.10351562 C144.55766281 266.04721512 144.68759125 266.99091461 144.82145691 267.96321106 C145.60383759 273.54562239 146.52509403 279.08735801 147.55974388 284.62866688 C155.33459617 326.50602862 155.33459617 326.50602862 149 337 C147.3515625 338.828125 147.3515625 338.828125 145.625 340.25 C145.06039062 340.72953125 144.49578125 341.2090625 143.9140625 341.703125 C139.72138241 344.54387968 136.06006383 345.24676989 131.04296875 345.1953125 C129.93115234 345.18886719 128.81933594 345.18242187 127.67382812 345.17578125 C126.52333984 345.15902344 125.37285156 345.14226562 124.1875 345.125 C123.01767578 345.11597656 121.84785156 345.10695313 120.64257812 345.09765625 C117.76150947 345.07413732 114.88086011 345.04126852 112 345 C112.63228516 343.96939453 112.63228516 343.96939453 113.27734375 342.91796875 C114.09912109 341.56638672 114.09912109 341.56638672 114.9375 340.1875 C115.48277344 339.29417969 116.02804687 338.40085937 116.58984375 337.48046875 C123.62327784 325.10863869 117.31192386 305.22998198 115.25 292.0625 C114.50669945 287.21690632 113.77076025 282.37020478 113.03515625 277.5234375 C112.85511551 276.34313461 112.67507477 275.16283173 112.48957825 273.94676208 C110.91515279 263.57587744 109.52343773 253.19123488 108.28027344 242.77563477 C107.56376603 236.89022866 106.6785057 231.06553495 105.609375 225.234375 C103.74374968 215.0041749 102.38987484 204.70815076 101.01010132 194.40316772 C100.25188523 188.7442299 99.48211433 183.0868718 98.7109375 177.4296875 C98.5616832 176.33442245 98.41242889 175.23915741 98.25865173 174.11070251 C96.89413752 164.14251171 95.40820836 154.19748545 93.82421875 144.26171875 C92.09187759 133.365073 90.63609008 122.42410593 89.1171875 111.49609375 C88.3707804 106.14309089 87.62311114 100.79026494 86.875 95.4375 C86.72909864 94.39297606 86.72909864 94.39297606 86.58024979 93.32735062 C84.3393883 77.28985431 82.06779015 61.25874287 79.62890625 45.25 C79.34907898 43.41285179 79.34907898 43.41285179 79.06359863 41.53858948 C78.18123542 35.76242439 77.28985258 29.98778134 76.38818359 24.21459961 C76.06996479 22.15218441 75.75176694 20.08976598 75.43359375 18.02734375 C75.28716934 17.10731567 75.14074493 16.1872876 74.98988342 15.23937988 C74.8584343 14.38299927 74.72698517 13.52661865 74.59155273 12.64428711 C74.47657944 11.91132919 74.36160614 11.17837128 74.2431488 10.42320251 C73.92943848 7.29678924 74 4.142113 74 1 C49.91 1 25.82 1 1 1 C0.67 2.32 0.34 3.64 0 5 C0 3.35 0 1.7 0 0 Z " fill="#96D9CF" transform="translate(334,152)"/>
<path d="M0 0 C2.12485383 1.63127164 4.15919963 3.31722893 6.18359375 5.0703125 C6.99828125 5.69679688 7.81296875 6.32328125 8.65234375 6.96875 C23.28934736 19.12107707 32.73846831 39.49905847 35.18359375 58.0703125 C35.71116307 65.01504714 35.60724726 71.9893463 35.58203125 78.94921875 C35.58405661 80.93505459 35.58697188 82.9208897 35.59072876 84.90672302 C35.59512111 89.03920677 35.58881531 93.17149434 35.57470703 97.30395508 C35.5575155 102.59659229 35.56753853 107.88877634 35.58542442 113.18139744 C35.59626005 117.2691948 35.59281866 121.35688439 35.58504105 125.44468498 C35.58304366 127.39710482 35.58548208 129.34953451 35.59247971 131.30194283 C35.60010165 134.02260517 35.58848419 136.74252755 35.57177734 139.46313477 C35.57785004 140.26473022 35.58392273 141.06632568 35.59017944 141.89221191 C35.53818175 146.46482136 35.0050673 149.42492913 32.18359375 153.0703125 C29.46921696 155.20303712 28.13532542 155.06777206 24.62109375 154.8828125 C20.07991482 153.80944293 20.07991482 153.80944293 18.18359375 151.0703125 C16.94101088 147.34256388 17.03910815 143.87984555 17.04174805 139.99731445 C17.03827362 139.17401642 17.03479919 138.35071838 17.03121948 137.50247192 C17.02386322 135.71169524 17.01851714 133.92090943 17.01492882 132.13012123 C17.0077444 129.28159421 16.99205758 126.43323758 16.97358704 123.58476257 C16.92124971 115.48418695 16.87327438 107.38369957 16.85766602 99.28295898 C16.84748916 94.32556502 16.81791157 89.3685933 16.77634621 84.41136742 C16.76415633 82.53505867 16.75889259 80.6586899 16.76114464 78.78234291 C16.78059898 57.25815944 12.72624949 38.6146236 -2.9296875 22.796875 C-15.33450919 11.08027752 -30.82725073 4.01720641 -48.06640625 3.8203125 C-49.98386271 3.88289267 -51.90084932 3.96449562 -53.81640625 4.0703125 C-54.93402344 4.09931641 -54.93402344 4.09931641 -56.07421875 4.12890625 C-71.9989301 5.098492 -87.25909395 14.52538066 -97.81640625 26.0703125 C-107.24016221 38.253143 -113.16437287 51.74396444 -113.0559082 67.25268555 C-113.05792236 68.13339722 -113.05993652 69.01410889 -113.06201172 69.92150879 C-113.06553752 71.81972122 -113.06481464 73.71794544 -113.06023598 75.61615562 C-113.0546132 78.6217481 -113.063848 81.62695897 -113.07743835 84.63252258 C-113.11445629 93.17275834 -113.133074 101.71285995 -113.12182617 110.25317383 C-113.11597773 115.4886243 -113.13421461 120.72353205 -113.16771507 125.95887184 C-113.17566756 127.95035091 -113.17439416 129.94188915 -113.16369057 131.93335533 C-113.14937433 134.71488055 -113.16561944 137.49469264 -113.1887207 140.27612305 C-113.17106911 141.50668175 -113.17106911 141.50668175 -113.15306091 142.76210022 C-113.2218347 146.98378288 -113.45683825 148.60804861 -116.1368866 152.05354309 C-119.5149658 154.59609089 -121.59579687 155.14568052 -125.81640625 155.0703125 C-129.24382254 152.98405911 -130.54121662 151.8958814 -131.81640625 148.0703125 C-131.92845605 145.2133157 -131.98410471 142.3800963 -131.9934082 139.52246094 C-131.9999794 138.64878876 -132.0065506 137.77511658 -132.01332092 136.87496948 C-132.03306425 133.97654124 -132.04472529 131.07816511 -132.0546875 128.1796875 C-132.05876303 127.18616524 -132.06283855 126.19264297 -132.06703758 125.16901398 C-132.08791308 119.89978748 -132.10220253 114.63058705 -132.11157227 109.36132812 C-132.12257704 103.95162319 -132.15690349 98.54233638 -132.19674397 93.13277817 C-132.22307338 88.94764516 -132.231279 84.76260873 -132.23485374 80.57740021 C-132.23968587 78.58576924 -132.25120184 76.5941416 -132.26989174 74.60259247 C-132.41984045 57.55006953 -130.57509441 40.70834474 -120.81640625 26.0703125 C-120.44777189 22.60514953 -120.32319343 20.78160399 -122.3359375 17.87890625 C-122.82449219 17.28207031 -123.31304687 16.68523438 -123.81640625 16.0703125 C-118.98642823 9.50092117 -113.6985799 3.71239743 -107.81640625 -1.9296875 C-106.82640625 -1.2696875 -105.83640625 -0.6096875 -104.81640625 0.0703125 C-98.20906159 0.99765912 -94.93488516 -0.72981472 -89.42578125 -4.27734375 C-62.0472508 -21.61434731 -26.06531385 -17.85889742 0 0 Z " fill="#FCF4E6" transform="translate(244.81640625,29.9296875)"/>
<path d="M0 0 C17.82522732 13.48029541 28.71280477 32.12364729 32.29878235 54.11531067 C32.94745553 59.10697568 32.97097352 64.02621442 32.91845703 69.05273438 C32.91562714 70.10116516 32.91279724 71.14959595 32.90988159 72.22979736 C32.89881775 75.53027482 32.87374021 78.83046598 32.84814453 82.13085938 C32.83809686 84.38866792 32.82897417 86.64648077 32.82080078 88.90429688 C32.79892384 94.39659222 32.76449174 99.88867751 32.72314453 105.38085938 C26.78314453 105.38085938 20.84314453 105.38085938 14.72314453 105.38085938 C14.71903564 103.98029297 14.71492676 102.57972656 14.71069336 101.13671875 C14.68867457 95.86569015 14.63415399 90.59538418 14.57055664 85.32470703 C14.54757302 83.05752568 14.53302781 80.79024054 14.52758789 78.52294922 C14.46207204 55.69319559 10.9681703 37.14746113 -5.42529297 19.98632812 C-18.64380875 7.90858836 -34.96733082 1.9640437 -52.89794922 2.16601562 C-62.52647367 2.77823394 -71.4024051 4.93298131 -80.00732422 9.29492188 C-82.10695373 10.29956388 -84.00543973 10.91091129 -86.27685547 11.38085938 C-86.66357422 10.86136719 -87.05029297 10.341875 -87.44873047 9.80664062 C-89.8003589 6.65755404 -92.14804838 3.53678375 -94.65185547 0.50585938 C-96.27685547 -1.61914062 -96.27685547 -1.61914062 -96.27685547 -3.61914062 C-86.47673277 -9.34630453 -77.410166 -13.24492862 -66.27685547 -15.61914062 C-65.50857422 -15.80863281 -64.74029297 -15.998125 -63.94873047 -16.19335938 C-41.20138643 -19.81830163 -18.50468812 -13.33309529 0 0 Z " fill="#FBD58D" transform="translate(363.27685546875,31.619140625)"/>
<path d="M0 0 C24.25982366 -1.08626076 46.25071395 3.76350486 65 20 C65.8146875 20.62648438 66.629375 21.25296875 67.46875 21.8984375 C82.10575361 34.05076457 91.55487456 54.42874597 94 73 C94.52756932 79.94473464 94.42365351 86.9190338 94.3984375 93.87890625 C94.40046286 95.86474209 94.40337813 97.8505772 94.40713501 99.83641052 C94.41152736 103.96889427 94.40522156 108.10118184 94.39111328 112.23364258 C94.37392175 117.52627979 94.38394478 122.81846384 94.40183067 128.11108494 C94.4126663 132.1988823 94.40922491 136.28657189 94.4014473 140.37437248 C94.39944991 142.32679232 94.40188833 144.27922201 94.40888596 146.23163033 C94.4165079 148.95229267 94.40489044 151.67221505 94.38818359 154.39282227 C94.39425629 155.19441772 94.40032898 155.99601318 94.40658569 156.82189941 C94.354588 161.39450886 93.82147355 164.35461663 91 168 C88.28562321 170.13272462 86.95173167 169.99745956 83.4375 169.8125 C78.89632107 168.73913043 78.89632107 168.73913043 77 166 C75.75741713 162.27225138 75.8555144 158.80953305 75.8581543 154.92700195 C75.85467987 154.10370392 75.85120544 153.28040588 75.84762573 152.43215942 C75.84026947 150.64138274 75.83492339 148.85059693 75.83133507 147.05980873 C75.82415065 144.21128171 75.80846383 141.36292508 75.78999329 138.51445007 C75.73765596 130.41387445 75.68968063 122.31338707 75.67407227 114.21264648 C75.66389541 109.25525252 75.63431782 104.2982808 75.59275246 99.34105492 C75.58056258 97.46474617 75.57529884 95.5883774 75.57755089 93.71203041 C75.59702185 72.16946852 71.51755436 53.60880791 55.91796875 37.734375 C51.58568416 33.67467057 46.91671838 30.307031 42 27 C39.30714032 25.10320468 37.23916836 23.25947618 35.1875 20.6875 C27.91728238 12.08560885 16.34300806 2.46668021 4.875 1.4375 C3.96492187 1.35371094 3.05484375 1.26992188 2.1171875 1.18359375 C1.41851562 1.12300781 0.71984375 1.06242187 0 1 C0 0.67 0 0.34 0 0 Z " fill="#FCEED3" transform="translate(186,15)"/>
<path d="M0 0 C7.50503509 6.21845764 10.47195074 15.63001772 12 25 C12.24705228 28.6514288 12.23466057 32.28301448 12.1953125 35.94140625 C12.1924826 36.94968979 12.18965271 37.95797333 12.18673706 38.99681091 C12.17563177 42.18549983 12.15054545 45.37389741 12.125 48.5625 C12.11495772 50.73762612 12.10583406 52.91275669 12.09765625 55.08789062 C12.07572411 60.39203762 12.04126168 65.69596959 12 71 C6.06 71 0.12 71 -6 71 C-6.07482154 64.13560295 -6.12891664 57.27144955 -6.16479492 50.40673828 C-6.17977077 48.07726906 -6.2001586 45.7478275 -6.22631836 43.41845703 C-6.55781644 13.11563287 -6.55781644 13.11563287 0 0 Z " fill="#F8D28B" transform="translate(235,67)"/>
</svg>
